<svg xmlns="http://www.w3.org/2000/svg" width="64" height="64" viewBox="0 0 64 64">
<!-- pin -->
<path d="M32 2C20.4 2 11 11.4 11 23c0 16.6 18 37.4 20 39.8a1.3 1.3 0 0 0 2 0C35 60.4 53 39.6 53 23 53 11.4 43.6 2 32 2z"
fill="#2563eb"/>
<path d="M32 6c-9.4 0-17 7.6-17 17 0 12.6 13.9 29.9 17 33.6 3.1-3.7 17-21 17-33.6 0-9.4-7.6-17-17-17z"
fill="#1d4ed8"/>

<!-- badge circle -->
<circle cx="32" cy="24" r="14" fill="white" opacity="0.95"/>

<!-- solar panel -->
<rect x="22" y="22" width="20" height="12" rx="2" fill="#0f172a"/>
<path d="M22 26h20M22 30h20M28 22v12M34 22v12M40 22v12" stroke="#60a5fa" stroke-width="1"/>

<!-- stand -->
<path d="M28 36l-4 8h4l4-8h-4zm8 0l4 8h4l-4-8h-4z" fill="#0f172a"/>

<!-- small sun -->
<circle cx="20" cy="18" r="3" fill="#fbbf24"/>
<path d="M20 12v2M20 22v2M14 18h2M24 18h2M16.2 14.2l1.4 1.4M22.4 20.4l1.4 1.4M16.2 21.8l1.4-1.4M22.4 15.6l1.4-1.4"
stroke="#f59e0b" stroke-width="1.2" stroke-linecap="round"/>
</svg>